<svg version="1.1" id="Layer_1" xmlns="http://www.w3.org/2000/svg" xmlns:xlink="http://www.w3.org/1999/xlink" x="0px" y="0px"
	 width="100%" viewBox="0 0 5726 2813" enable-background="new 0 0 5726 2813" xml:space="preserve">
<path fill="#FFFFFF" opacity="1.000000" stroke="none" 
	d="
M3522.000000,2816.000000 
	C2348.000000,2816.000000 1175.000000,2816.000000 2.000000,2816.000000 
	C2.000000,1878.000000 2.000000,940.000000 2.000000,2.000000 
	C1910.666626,2.000000 3819.333252,2.000000 5728.000000,2.000000 
	C5728.000000,940.000000 5728.000000,1878.000000 5728.000000,2816.000000 
	C4993.000000,2816.000000 4258.000000,2816.000000 3522.000000,2816.000000 
M1414.278931,1128.278809 
	C1414.582520,1128.544800 1414.886230,1128.810913 1414.486694,1130.211426 
	C1407.051392,1137.348022 1399.509155,1144.376831 1392.201538,1151.641846 
	C1371.872192,1171.852905 1351.692139,1192.214233 1331.353394,1212.415771 
	C1315.280273,1228.380493 1299.043579,1244.180054 1282.923950,1260.098145 
	C1280.855225,1262.140991 1279.054565,1264.455200 1276.791260,1267.028564 
	C1279.856323,1270.488525 1282.455078,1273.422241 1285.449219,1276.802246 
	C1368.611938,1249.181030 1452.919556,1226.758423 1538.622925,1208.683594 
	C1473.692017,1059.911133 1295.160034,918.308411 1065.364746,942.434387 
	C857.204651,964.288879 715.563477,1117.778931 674.582520,1254.304199 
	C756.568420,1274.391602 837.227234,1298.844849 915.838135,1327.802490 
	C925.841492,1310.361816 935.395386,1293.704956 945.184143,1276.638550 
	C922.808594,1255.079712 900.625000,1232.521240 877.144226,1211.405396 
	C852.171814,1188.947998 814.013855,1152.363647 810.368286,1143.817139 
	C859.985657,1182.821411 908.272278,1223.506104 956.420776,1262.143188 
	C976.094543,1246.839844 994.598450,1232.446411 1013.347717,1217.862183 
	C989.166382,1159.134766 964.852478,1100.098877 940.581909,1041.045166 
	C940.100037,1039.872803 940.089233,1038.496826 939.940308,1037.206299 
	C939.909424,1036.939697 940.187683,1036.565796 940.427002,1036.363770 
	C940.595947,1036.221191 940.939453,1036.285522 942.390991,1036.132324 
	C956.771423,1064.845093 971.314941,1093.957153 985.925720,1123.035522 
	C1000.665344,1152.370239 1015.066833,1181.882690 1030.445801,1211.660278 
	C1053.219116,1201.978027 1075.832886,1196.997925 1099.079590,1194.532227 
	C1099.986694,1174.472656 1101.104858,1155.269409 1101.666382,1136.049927 
	C1102.550659,1105.782349 1102.981079,1075.501587 1103.754517,1045.230347 
	C1104.349243,1021.958069 1105.165405,998.691284 1105.920166,975.423279 
	C1105.980713,973.552490 1106.329346,971.690979 1106.544189,969.825195 
	C1108.118408,981.397461 1109.105225,992.939087 1109.682739,1004.501160 
	C1111.124023,1033.356323 1112.492920,1062.216309 1113.674927,1091.083130 
	C1114.695068,1115.995117 1115.311890,1140.923706 1116.327393,1165.835938 
	C1116.701416,1175.010864 1117.706421,1184.160034 1118.320923,1192.008423 
	C1142.008911,1196.260864 1164.772583,1200.347290 1188.794922,1204.659790 
	C1197.754883,1186.006836 1207.213257,1166.254761 1216.726440,1146.529175 
	C1226.413696,1126.442871 1236.104614,1106.358154 1245.887329,1086.318237 
	C1255.412964,1066.805298 1263.808960,1046.709595 1275.721802,1028.331787 
	C1253.557007,1090.414917 1228.565552,1151.372070 1205.214111,1213.203857 
	C1227.029053,1224.153809 1246.125854,1236.719727 1263.329224,1252.972290 
	C1266.063965,1250.948486 1268.532837,1249.331055 1270.767212,1247.436768 
	C1307.804321,1216.037476 1344.774536,1184.559326 1381.850342,1153.205933 
	C1392.222168,1144.434814 1402.885742,1136.008667 1414.278931,1128.278809 
M1406.324097,1876.613403 
	C1488.941406,1935.532471 1567.752930,1999.160522 1642.526733,2068.220215 
	C1680.999390,2037.234131 1716.579468,2003.977661 1749.424805,1966.052612 
	C1545.346680,1750.212036 1312.479614,1575.263428 1042.223145,1451.442993 
	C801.639282,1341.217285 548.781738,1279.876465 285.066437,1259.074341 
	C272.957611,1328.487183 269.189240,1397.108398 274.053223,1466.418945 
	C275.972778,1467.005737 277.507080,1467.760254 279.099976,1467.916138 
	C290.989563,1469.079346 302.931152,1469.797119 314.781097,1471.263672 
	C359.904327,1476.847778 405.126221,1481.818481 450.073517,1488.595337 
	C511.201599,1497.811646 571.786560,1510.162720 631.889038,1524.659790 
	C714.909424,1544.684814 796.679016,1569.040649 876.866821,1598.422607 
	C980.942444,1636.557251 1081.899902,1681.690674 1179.225342,1734.882935 
	C1257.250000,1777.526611 1332.525879,1824.517822 1406.324097,1876.613403 
M1666.387329,982.635742 
	C1664.640869,981.104065 1662.713257,979.734619 1661.174805,978.016724 
	C1630.328003,943.569336 1619.705933,903.289612 1629.895386,858.597778 
	C1636.751343,828.526245 1646.652222,799.145020 1655.319824,769.492737 
	C1658.108521,759.952637 1658.463135,759.791565 1650.550781,753.703430 
	C1634.196289,741.119446 1617.939087,728.375977 1601.110352,716.447937 
	C1572.879883,696.438416 1543.428345,678.348511 1512.174561,662.220886 
	C1494.776245,677.851746 1477.389282,693.296204 1460.200439,708.958069 
	C1437.240356,729.878479 1411.601074,746.108948 1381.457397,754.543274 
	C1350.144287,763.304688 1320.154419,760.569031 1292.108643,743.413391 
	C1278.001221,734.783875 1266.633057,723.138672 1257.193115,709.610291 
	C1241.624268,687.298706 1230.529663,662.698364 1222.200073,637.010620 
	C1215.757324,617.141541 1211.016479,596.700867 1206.063110,576.381653 
	C1204.723755,570.888184 1202.423584,568.332031 1196.864502,568.048035 
	C1181.927979,567.285034 1167.006470,565.602844 1152.073120,565.532043 
	C1114.801147,565.355286 1077.494019,564.285522 1040.293335,568.016174 
	C1031.369751,568.911011 1031.448120,568.614014 1028.959351,577.334412 
	C1022.027100,601.625366 1015.418030,626.020325 1007.870850,650.120361 
	C1001.388672,670.819458 992.387329,690.468201 979.720703,708.285828 
	C947.898132,753.049072 894.410645,772.136963 839.542786,750.006714 
	C817.987427,741.312561 798.816101,728.697937 781.120789,713.958191 
	C761.206238,697.369812 741.986267,679.947693 721.907593,662.401855 
	C670.523132,689.559753 621.960144,721.920593 576.684082,759.667358 
	C582.006348,776.978699 587.264465,793.762268 592.321228,810.606384 
	C599.299500,833.851318 606.140503,857.240051 607.872681,881.527405 
	C610.595886,919.710022 599.475525,953.381653 571.046204,979.864624 
	C546.009583,1003.187256 515.002930,1012.204224 481.564545,1014.034180 
	C458.428802,1015.300293 435.923279,1010.066467 413.247772,1006.740906 
	C401.154114,1004.967163 389.100067,1002.923096 376.654022,1000.941528 
	C344.072601,1062.070312 316.515442,1124.081909 299.544464,1192.107178 
	C339.659027,1196.905396 378.578125,1201.060059 417.344299,1206.337646 
	C456.388367,1211.653076 495.280579,1218.083984 534.089478,1224.003296 
	C580.509033,1079.597046 676.003662,975.866333 755.588989,917.560486 
	C862.303528,839.379028 982.158386,799.419312 1114.062744,798.500305 
	C1218.291260,797.774231 1317.234009,822.280579 1408.775635,872.927612 
	C1536.580322,943.637634 1627.815552,1047.477905 1684.702759,1182.302124 
	C1724.823975,1177.630859 1764.625977,1172.350220 1804.567627,1168.528076 
	C1844.506470,1164.706543 1884.584839,1162.343506 1925.504517,1159.273438 
	C1908.028564,1103.971313 1886.077637,1051.046753 1858.091309,1001.572083 
	C1826.940308,1005.298401 1796.979736,1009.164490 1766.951416,1012.402527 
	C1729.942627,1016.393250 1696.279785,1008.114868 1666.387329,982.635742 
M1548.475464,2133.470215 
	C1561.008545,2125.604004 1573.541504,2117.737793 1586.942993,2109.326660 
	C1215.715088,1771.066772 781.079956,1581.912354 282.393677,1537.480347 
	C282.393677,1540.519775 282.156830,1542.195679 282.427734,1543.785034 
	C294.751556,1616.097778 314.981262,1686.040039 344.942780,1753.101807 
	C347.557098,1758.953491 350.993591,1761.317993 357.421692,1762.250732 
	C397.184906,1768.020020 437.016510,1773.527588 476.537872,1780.705444 
	C535.426086,1791.400513 593.869934,1804.275879 651.757019,1819.651489 
	C736.300110,1842.107544 819.461914,1868.751709 900.852600,1900.813477 
	C971.959900,1928.824463 1041.933228,1959.429932 1109.272705,1995.675171 
	C1151.686768,2018.504272 1194.025269,2041.557129 1235.493652,2066.040771 
	C1299.128662,2103.611816 1360.241211,2145.108398 1419.503418,2189.276367 
	C1424.105347,2192.706299 1427.891235,2193.060059 1433.125854,2190.919434 
	C1472.549927,2174.797119 1510.694336,2156.147949 1548.475464,2133.470215 
M2548.803223,1931.816284 
	C2558.679199,1905.716797 2568.512451,1879.600952 2578.442871,1853.522217 
	C2588.375732,1827.437866 2598.293213,1801.346802 2608.425049,1775.339478 
	C2618.447021,1749.614380 2627.576904,1723.523560 2640.024902,1698.571899 
	C2640.024902,1822.117676 2640.024902,1945.663330 2640.024902,2069.578613 
	C2677.309814,2069.578613 2714.083252,2069.578613 2751.208008,2069.578613 
	C2751.208008,1862.859985 2751.208008,1656.716431 2751.208008,1449.994385 
	C2707.940186,1449.994385 2665.134521,1449.994385 2621.819336,1449.994385 
	C2562.409912,1605.948730 2503.046387,1761.782471 2442.871338,1919.746826 
	C2382.284912,1761.467285 2322.593506,1605.525879 2263.070068,1450.022705 
	C2219.385254,1450.022705 2176.890137,1450.022705 2134.416992,1450.022705 
	C2134.416992,1657.014404 2134.416992,1863.398315 2134.416992,2069.572754 
	C2171.348389,2069.572754 2207.528076,2069.572754 2244.255859,2069.572754 
	C2244.255859,1944.853394 2244.255859,1820.713257 2244.255859,1696.573120 
	C2244.907227,1696.395264 2245.558838,1696.217407 2246.210205,1696.039551 
	C2293.646729,1820.506592 2341.083252,1944.973755 2388.650146,2069.783447 
	C2424.266357,2069.783447 2460.869873,2069.783447 2496.250000,2069.783447 
	C2513.772217,2023.800171 2531.018555,1978.540894 2548.803223,1931.816284 
M2996.039795,1237.014404 
	C2993.348877,1239.485107 2990.758057,1242.076538 2987.950928,1244.407227 
	C2965.609863,1262.956055 2939.018311,1269.434937 2910.907227,1269.887573 
	C2863.516357,1270.650513 2824.318604,1252.388062 2793.218018,1216.646851 
	C2791.100098,1214.213013 2788.666260,1212.054077 2786.165039,1209.552979 
	C2756.855469,1230.206665 2728.136963,1250.443848 2699.673584,1270.501221 
	C2700.091064,1272.013916 2700.088379,1272.781616 2700.462158,1273.247192 
	C2727.004395,1306.305176 2759.827393,1331.110962 2798.929688,1347.428711 
	C2836.019531,1362.906860 2874.784912,1369.090576 2914.915527,1368.130615 
	C2956.509521,1367.135864 2996.102051,1358.602783 3032.526855,1338.007690 
	C3080.877441,1310.669922 3111.323730,1269.711426 3123.910645,1215.597778 
	C3128.907959,1194.112793 3129.822021,1172.223511 3129.677490,1150.262939 
	C3129.232666,1082.663208 3128.984619,1015.061218 3128.242676,947.464600 
	C3127.902832,916.481812 3120.509033,886.823364 3107.690918,858.725464 
	C3086.114258,811.429199 3051.572510,776.911560 3003.919922,755.700256 
	C2969.600098,740.423462 2933.587646,734.734070 2896.183594,734.927979 
	C2855.548096,735.138733 2817.078613,743.382812 2781.005615,762.263367 
	C2750.582031,778.187134 2726.111572,800.851868 2707.108154,829.221680 
	C2683.966309,863.769409 2673.029053,902.647095 2670.548584,943.694702 
	C2668.350586,980.073792 2671.825684,1016.042969 2684.185303,1050.774292 
	C2705.583496,1110.904175 2745.260010,1153.742432 2804.746094,1177.270508 
	C2846.539795,1193.800903 2889.996826,1197.056641 2934.095947,1189.213989 
	C2966.071533,1183.527466 2995.481445,1171.920654 3018.566895,1147.752686 
	C3019.077637,1147.218506 3020.219482,1147.287231 3021.131592,1147.058594 
	C3024.105713,1185.476440 3017.787354,1211.725952 2996.039795,1237.014404 
M4395.812500,2239.295166 
	C4397.750000,2239.773438 4399.704590,2240.189697 4401.622070,2240.738770 
	C4459.770020,2257.391846 4517.793945,2257.364746 4575.153809,2237.770752 
	C4616.575684,2223.621094 4650.436035,2198.896484 4674.793945,2161.856201 
	C4696.883789,2128.264893 4706.179199,2091.099854 4706.283691,2051.379883 
	C4706.462402,1983.734741 4706.414062,1916.088379 4706.283203,1848.442871 
	C4706.245117,1828.494263 4704.323730,1808.685913 4699.970703,1789.164917 
	C4690.941895,1748.672974 4673.127441,1712.760254 4643.799805,1683.099365 
	C4605.607422,1644.473511 4558.145996,1625.529175 4504.975586,1620.377563 
	C4477.490723,1617.714722 4449.862305,1618.519043 4422.530762,1623.953369 
	C4373.282227,1633.745483 4331.233398,1656.004028 4298.466309,1694.636353 
	C4268.178711,1730.344849 4252.625488,1772.278076 4248.561035,1818.301758 
	C4244.996582,1858.651001 4247.887207,1898.600220 4261.884277,1937.250000 
	C4274.626953,1972.436523 4294.704102,2002.581787 4323.047363,2026.841553 
	C4363.132812,2061.151367 4410.762207,2075.870361 4462.717773,2077.167480 
	C4478.868652,2077.570557 4495.240723,2075.763672 4511.260254,2073.320068 
	C4537.897949,2069.256836 4562.629883,2059.816162 4583.860352,2042.619263 
	C4588.390625,2038.949585 4592.548340,2034.819092 4598.321777,2029.594116 
	C4598.321777,2041.163086 4598.918945,2051.048340 4598.211426,2060.839111 
	C4596.007324,2091.347168 4583.640625,2116.552002 4557.748047,2133.957031 
	C4529.195801,2153.149658 4497.238770,2156.845947 4464.093750,2152.742188 
	C4425.686035,2147.986084 4394.668457,2129.304688 4369.710938,2100.125732 
	C4367.767578,2097.853760 4366.337891,2095.142578 4364.729004,2092.725342 
	C4333.875000,2114.491943 4304.962402,2134.889160 4275.818848,2155.449219 
	C4307.822754,2195.543945 4347.126465,2222.760498 4395.812500,2239.295166 
M512.186584,1857.116455 
	C471.358337,1849.816162 430.530090,1842.515747 387.259277,1834.778687 
	C435.786591,1917.397339 494.944275,1987.659668 565.425964,2048.440186 
	C636.275269,2109.538086 715.202515,2157.509521 802.066467,2192.270020 
	C888.542053,2226.875244 978.317688,2246.640625 1071.389648,2251.203125 
	C1164.502441,2255.768066 1255.999756,2246.415527 1348.085083,2219.975586 
	C1320.108276,2201.000000 1294.470093,2183.168701 1268.392944,2166.004639 
	C1183.862793,2110.367188 1095.718750,2061.176758 1004.054199,2018.262573 
	C930.256836,1983.713257 854.654053,1953.726807 777.484863,1927.640991 
	C727.143555,1910.623657 676.181946,1895.616089 624.655884,1882.704712 
	C587.920532,1873.499512 550.792053,1865.862793 512.186584,1857.116455 
M1641.264648,1468.061646 
	C1746.432861,1449.249390 1852.445435,1437.870239 1958.987671,1432.923340 
	C1963.571167,1384.088623 1950.494995,1251.864258 1938.528809,1225.630249 
	C1654.325562,1238.267578 1380.444092,1296.585205 1117.801758,1412.437866 
	C1122.250732,1414.870117 1125.048340,1416.478149 1127.914551,1417.953125 
	C1142.102661,1425.254395 1156.306152,1432.525757 1170.509155,1439.797974 
	C1224.100708,1467.238647 1275.961426,1497.694092 1326.984741,1529.609497 
	C1332.888306,1533.302246 1338.572754,1539.194702 1344.848389,1539.938965 
	C1351.512817,1540.729248 1358.797485,1536.719971 1365.747803,1534.598511 
	C1418.802490,1518.404907 1472.212402,1503.490356 1526.399902,1491.588867 
	C1564.012695,1483.327759 1601.822144,1475.961670 1641.264648,1468.061646 
M2541.983643,795.014099 
	C2515.671631,718.442627 2489.359375,641.871216 2463.109131,565.480469 
	C2423.485596,565.480469 2384.912354,565.480469 2345.576416,565.480469 
	C2275.570801,769.456970 2205.604736,973.312256 2135.662842,1177.175659 
	C2134.914307,1179.357178 2134.458496,1181.640625 2133.913330,1183.888062 
	C2133.844482,1184.171265 2134.022461,1184.549438 2134.171875,1184.839355 
	C2134.303711,1185.095215 2134.555664,1185.289062 2134.973877,1185.753906 
	C2173.016602,1185.753906 2211.278076,1185.753906 2250.213867,1185.753906 
	C2267.324951,1131.263306 2284.414795,1076.840942 2301.491699,1022.459717 
	C2370.581055,1022.459717 2438.816895,1022.459717 2507.191895,1022.459717 
	C2524.367188,1077.156738 2541.437744,1131.520142 2558.391357,1185.511597 
	C2598.022705,1185.511597 2636.507080,1185.511597 2675.862549,1185.511597 
	C2673.784424,1179.803711 2671.894531,1174.873779 2670.186035,1169.881592 
	C2641.255371,1085.346191 2612.362793,1000.797729 2583.426514,916.264221 
	C2569.763916,876.350952 2556.026855,836.463318 2541.983643,795.014099 
M4982.751465,1620.145020 
	C4947.543945,1618.995850 4913.099121,1622.899658 4879.883301,1635.343506 
	C4815.029297,1659.640259 4772.631348,1705.255737 4752.379395,1771.128662 
	C4738.419922,1816.534790 4737.514648,1862.910400 4748.125488,1909.027466 
	C4765.333008,1983.812500 4809.180176,2036.646851 4881.900879,2063.075928 
	C4932.867676,2081.598877 4985.269531,2082.928711 5037.936523,2070.079346 
	C5092.021973,2056.884033 5134.884766,2027.566406 5164.958984,1980.400391 
	C5174.437500,1965.536133 5182.053711,1949.696899 5187.165527,1932.113403 
	C5184.895020,1931.822754 5183.311523,1931.444702 5181.728027,1931.443115 
	C5146.730469,1931.409058 5111.731934,1931.531860 5076.736328,1931.288574 
	C5071.663574,1931.253418 5068.848633,1933.542603 5066.105469,1937.088379 
	C5056.593750,1949.381226 5044.874512,1958.953369 5030.991211,1966.050415 
	C5010.295898,1976.629272 4988.230957,1980.178589 4965.313477,1979.379761 
	C4932.814941,1978.246826 4904.038086,1968.044312 4881.443848,1943.667725 
	C4865.956543,1926.958374 4856.859375,1907.155640 4852.937012,1884.005371 
	C4968.434082,1884.005371 5083.036133,1884.005371 5197.440430,1884.005371 
	C5198.170410,1882.611572 5198.732422,1881.778931 5199.050781,1880.861694 
	C5199.373047,1879.932983 5199.578125,1878.926758 5199.624512,1877.944580 
	C5201.088867,1846.989014 5200.981934,1816.162842 5193.817383,1785.714233 
	C5183.295898,1740.997559 5161.937988,1702.458252 5126.967285,1672.570312 
	C5086.214355,1637.740112 5037.730469,1622.368652 4982.751465,1620.145020 
M2843.087646,1694.102417 
	C2826.600830,1713.175049 2814.190186,1734.599365 2805.730957,1758.357178 
	C2792.845215,1794.547974 2788.177979,1831.663452 2791.474854,1870.007202 
	C2792.961426,1887.293945 2795.279297,1904.342651 2799.995850,1920.966431 
	C2817.211426,1981.644409 2852.534668,2027.917236 2909.832275,2055.806152 
	C2947.088623,2073.940430 2986.802490,2080.256348 3028.064453,2077.478760 
	C3070.890869,2074.595703 3110.125488,2063.020020 3142.318604,2029.695068 
	C3142.318604,2043.995361 3142.318604,2056.708252 3142.318604,2069.577148 
	C3178.599365,2069.577148 3213.734131,2069.577148 3249.674316,2069.577148 
	C3249.674316,2065.422852 3249.674072,2061.826172 3249.674072,2058.229736 
	C3249.674072,1988.251709 3249.659668,1918.273804 3249.683105,1848.295776 
	C3249.690674,1826.298340 3247.222656,1804.579346 3241.739258,1783.295532 
	C3223.256592,1711.553345 3180.159180,1660.903442 3110.362549,1635.318604 
	C3052.347900,1614.052734 2993.168701,1614.327393 2934.386230,1633.299683 
	C2898.854004,1644.767700 2868.548096,1664.649170 2843.087646,1694.102417 
M3893.107422,2066.010742 
	C3933.419189,2078.996338 3974.449707,2081.820312 4016.019531,2073.810547 
	C4046.560059,2067.925781 4074.652588,2056.651367 4096.791504,2033.631714 
	C4097.376465,2033.023438 4098.298340,2032.739380 4100.462891,2031.508179 
	C4100.462891,2044.942383 4100.462891,2057.331055 4100.462891,2069.412109 
	C4137.148438,2069.412109 4172.608398,2069.412109 4208.094238,2069.412109 
	C4208.196777,2067.346680 4208.319336,2066.019287 4208.319824,2064.692139 
	C4208.330566,1991.064331 4208.579590,1917.435181 4208.210449,1843.809204 
	C4208.061523,1814.095215 4202.914062,1785.060425 4192.271484,1757.161377 
	C4178.449219,1720.926514 4156.855469,1690.344604 4126.101074,1666.467163 
	C4088.055176,1636.929565 4044.174072,1623.122681 3996.782227,1620.354858 
	C3961.091553,1618.270386 3925.782959,1621.499268 3891.697021,1633.724121 
	C3821.987793,1658.724976 3777.846924,1707.308594 3758.021729,1778.281128 
	C3748.039307,1814.017456 3747.399658,1850.460449 3751.797852,1887.013550 
	C3756.279785,1924.265137 3768.943115,1958.675415 3790.463379,1989.519531 
	C3815.818604,2025.859863 3849.973145,2050.733887 3893.107422,2066.010742 
M3837.969238,852.957764 
	C3810.640381,798.024109 3766.792480,763.136658 3708.337158,745.791443 
	C3679.943359,737.366211 3650.926514,735.367920 3621.515625,735.983887 
	C3585.430908,736.739746 3550.915527,744.442139 3518.734863,760.576660 
	C3468.170898,785.928162 3434.019043,826.109863 3415.979492,879.638733 
	C3404.967285,912.314880 3401.152344,945.928833 3403.423096,980.505371 
	C3405.179199,1007.245850 3409.614746,1033.197754 3419.406982,1058.101196 
	C3442.067139,1115.729492 3482.329346,1155.987549 3540.290283,1177.732422 
	C3593.218994,1197.589355 3647.597900,1199.435913 3701.941162,1185.099487 
	C3774.778564,1165.884033 3824.088867,1120.150146 3848.662598,1048.637695 
	C3861.045410,1012.602600 3863.758057,975.460510 3860.505127,937.586548 
	C3858.003906,908.464783 3851.098389,880.710205 3837.969238,852.957764 
M3596.232666,1634.610840 
	C3587.417480,1631.690674 3578.733154,1628.263306 3569.762695,1625.943481 
	C3540.557129,1618.391235 3510.923340,1616.559814 3480.848877,1619.325928 
	C3432.152100,1623.804932 3389.210938,1640.760254 3354.848145,1676.450928 
	C3320.625732,1711.996094 3302.325684,1754.754761 3301.882324,1803.988281 
	C3301.108154,1889.951416 3301.662842,1975.926392 3301.685791,2061.896484 
	C3301.686523,2064.442383 3301.968994,2066.988037 3302.114258,2069.434326 
	C3338.264160,2069.434326 3373.689453,2069.434326 3409.673584,2069.434326 
	C3409.673584,2065.431152 3409.673828,2062.144287 3409.673828,2058.857422 
	C3409.673828,2020.537476 3409.673584,1982.217529 3409.673828,1943.897583 
	C3409.673828,1896.580688 3409.173584,1849.256714 3409.849121,1801.949463 
	C3410.300293,1770.353882 3424.111328,1745.585938 3452.469727,1730.304077 
	C3478.510742,1716.270874 3506.229492,1714.467041 3534.718750,1720.824463 
	C3579.330566,1730.779663 3602.901611,1766.292358 3602.546143,1807.082764 
	C3601.814209,1891.046997 3602.326172,1975.022217 3602.326172,2058.992920 
	C3602.326172,2062.529785 3602.326416,2066.066650 3602.326416,2069.435547 
	C3639.093750,2069.435547 3674.554932,2069.435547 3710.333496,2069.435547 
	C3710.333496,2065.066650 3710.333496,2061.414551 3710.333496,2057.762207 
	C3710.333496,1974.124756 3710.279541,1890.487305 3710.362793,1806.849854 
	C3710.391602,1777.717896 3703.679688,1750.151733 3690.871094,1724.186157 
	C3670.683594,1683.261597 3639.533203,1653.564819 3596.232666,1634.610840 
M1422.215576,1588.448364 
	C1421.518311,1589.113403 1420.820923,1589.778442 1420.126099,1590.441162 
	C1420.613892,1591.096191 1420.899292,1591.762695 1421.403931,1592.117065 
	C1492.754272,1642.234985 1561.308594,1695.899902 1626.555420,1753.762695 
	C1630.031006,1756.844971 1633.541382,1757.515015 1638.405396,1756.602783 
	C1663.522217,1751.892456 1688.728516,1747.643311 1713.945801,1743.489746 
	C1768.300293,1734.536987 1822.931885,1727.805420 1877.847412,1723.390503 
	C1885.356323,1722.786743 1892.830933,1721.755249 1900.308838,1720.923218 
	C1928.370239,1650.195190 1946.400146,1577.835938 1954.537598,1502.708252 
	C1773.492188,1511.131958 1596.853394,1538.840210 1422.215576,1588.448364 
M3284.333252,1172.875244 
	C3284.333252,1094.912720 3284.295410,1016.950073 3284.393555,938.987610 
	C3284.403076,931.377502 3284.857910,923.720398 3285.777588,916.166870 
	C3290.641602,876.210266 3314.369141,848.407043 3353.569336,838.099060 
	C3367.571533,834.417175 3382.202393,833.128296 3397.164551,830.644470 
	C3397.164551,799.227356 3397.164551,767.097534 3397.164551,733.724060 
	C3386.446045,734.192932 3376.228027,734.358215 3366.057373,735.138123 
	C3336.678711,737.391113 3308.191895,743.554688 3281.264404,755.829956 
	C3241.534912,773.941406 3212.387939,802.587708 3194.547607,842.707275 
	C3181.330322,872.430420 3176.793457,903.922302 3176.536377,935.865479 
	C3175.888184,1016.488281 3176.316162,1097.119751 3176.346436,1177.747681 
	C3176.347412,1180.304199 3176.712158,1182.860352 3176.905762,1185.395264 
	C3212.984863,1185.395264 3248.441162,1185.395264 3284.333252,1185.395264 
	C3284.333252,1181.441284 3284.333252,1178.139160 3284.333252,1172.875244 
M5437.528320,1718.101074 
	C5445.355957,1717.291138 5453.183594,1716.481201 5460.979492,1715.674561 
	C5460.979492,1682.929443 5460.979492,1650.809448 5460.979492,1617.660034 
	C5450.998047,1618.269897 5441.772949,1618.960205 5432.535156,1619.373657 
	C5407.098145,1620.512451 5382.415527,1625.601440 5358.613770,1634.411255 
	C5330.455078,1644.833984 5305.511719,1660.333252 5285.533691,1683.202393 
	C5254.257812,1719.004639 5241.372559,1761.993042 5240.684082,1808.137085 
	C5239.417969,1893.081421 5240.316895,1978.057861 5240.354004,2063.020996 
	C5240.354980,2065.236816 5240.815430,2067.452637 5241.041016,2069.478516 
	C5276.780273,2069.478516 5311.914551,2069.478516 5347.677734,2069.478516 
	C5347.677734,2065.192871 5347.677734,2061.580811 5347.677734,2057.968994 
	C5347.677734,1980.002808 5347.604980,1902.036621 5347.771484,1824.070801 
	C5347.791992,1814.478027 5348.272949,1804.742188 5349.951172,1795.324097 
	C5354.789551,1768.167236 5367.857422,1746.289551 5392.443848,1732.176392 
	C5405.938477,1724.430054 5420.534180,1720.430054 5437.528320,1718.101074 
M1704.406982,1814.213379 
	C1702.056274,1814.907471 1699.705566,1815.601440 1698.828857,1815.860229 
	C1730.293457,1847.690186 1761.770142,1879.532227 1793.239258,1911.366821 
	C1808.815918,1895.319458 1861.389893,1810.737183 1865.632568,1794.212280 
	C1862.572266,1794.212280 1859.604370,1793.885010 1856.728394,1794.260986 
	C1806.474243,1800.830688 1756.231445,1807.486572 1704.406982,1814.213379 
z"/>
<path fill="#773F1B" opacity="1.000000" stroke="none" 
	d="
M1405.699951,1876.257812 
	C1332.525879,1824.517822 1257.250000,1777.526611 1179.225342,1734.882935 
	C1081.899902,1681.690674 980.942444,1636.557251 876.866821,1598.422607 
	C796.679016,1569.040649 714.909424,1544.684814 631.889038,1524.659790 
	C571.786560,1510.162720 511.201599,1497.811646 450.073517,1488.595337 
	C405.126221,1481.818481 359.904327,1476.847778 314.781097,1471.263672 
	C302.931152,1469.797119 290.989563,1469.079346 279.099976,1467.916138 
	C277.507080,1467.760254 275.972778,1467.005737 274.053223,1466.418945 
	C269.189240,1397.108398 272.957611,1328.487183 285.066437,1259.074341 
	C548.781738,1279.876465 801.639282,1341.217285 1042.223145,1451.442993 
	C1312.479614,1575.263428 1545.346680,1750.212036 1749.424805,1966.052612 
	C1716.579468,2003.977661 1680.999390,2037.234131 1642.526733,2068.220215 
	C1567.752930,1999.160522 1488.941406,1935.532471 1405.699951,1876.257812 
z"/>
<path fill="#79BF44" opacity="1.000000" stroke="none" 
	d="
M1666.893799,983.135010 
	C1696.279785,1008.114868 1729.942627,1016.393250 1766.951416,1012.402527 
	C1796.979736,1009.164490 1826.940308,1005.298401 1858.091309,1001.572083 
	C1886.077637,1051.046753 1908.028564,1103.971313 1925.504517,1159.273438 
	C1884.584839,1162.343506 1844.506470,1164.706543 1804.567627,1168.528076 
	C1764.625977,1172.350220 1724.823975,1177.630859 1684.702759,1182.302124 
	C1627.815552,1047.477905 1536.580322,943.637634 1408.775635,872.927612 
	C1317.234009,822.280579 1218.291260,797.774231 1114.062744,798.500305 
	C982.158386,799.419312 862.303528,839.379028 755.588989,917.560486 
	C676.003662,975.866333 580.509033,1079.597046 534.089478,1224.003296 
	C495.280579,1218.083984 456.388367,1211.653076 417.344299,1206.337646 
	C378.578125,1201.060059 339.659027,1196.905396 299.544464,1192.107178 
	C316.515442,1124.081909 344.072601,1062.070312 376.654022,1000.941528 
	C389.100067,1002.923096 401.154114,1004.967163 413.247772,1006.740906 
	C435.923279,1010.066467 458.428802,1015.300293 481.564545,1014.034180 
	C515.002930,1012.204224 546.009583,1003.187256 571.046204,979.864624 
	C599.475525,953.381653 610.595886,919.710022 607.872681,881.527405 
	C606.140503,857.240051 599.299500,833.851318 592.321228,810.606384 
	C587.264465,793.762268 582.006348,776.978699 576.684082,759.667358 
	C621.960144,721.920593 670.523132,689.559753 721.907593,662.401855 
	C741.986267,679.947693 761.206238,697.369812 781.120789,713.958191 
	C798.816101,728.697937 817.987427,741.312561 839.542786,750.006714 
	C894.410645,772.136963 947.898132,753.049072 979.720703,708.285828 
	C992.387329,690.468201 1001.388672,670.819458 1007.870850,650.120361 
	C1015.418030,626.020325 1022.027100,601.625366 1028.959351,577.334412 
	C1031.448120,568.614014 1031.369751,568.911011 1040.293335,568.016174 
	C1077.494019,564.285522 1114.801147,565.355286 1152.073120,565.532043 
	C1167.006470,565.602844 1181.927979,567.285034 1196.864502,568.048035 
	C1202.423584,568.332031 1204.723755,570.888184 1206.063110,576.381653 
	C1211.016479,596.700867 1215.757324,617.141541 1222.200073,637.010620 
	C1230.529663,662.698364 1241.624268,687.298706 1257.193115,709.610291 
	C1266.633057,723.138672 1278.001221,734.783875 1292.108643,743.413391 
	C1320.154419,760.569031 1350.144287,763.304688 1381.457397,754.543274 
	C1411.601074,746.108948 1437.240356,729.878479 1460.200439,708.958069 
	C1477.389282,693.296204 1494.776245,677.851746 1512.174561,662.220886 
	C1543.428345,678.348511 1572.879883,696.438416 1601.110352,716.447937 
	C1617.939087,728.375977 1634.196289,741.119446 1650.550781,753.703430 
	C1658.463135,759.791565 1658.108521,759.952637 1655.319824,769.492737 
	C1646.652222,799.145020 1636.751343,828.526245 1629.895386,858.597778 
	C1619.705933,903.289612 1630.328003,943.569336 1661.174805,978.016724 
	C1662.713257,979.734619 1664.640869,981.104065 1666.893799,983.135010 
z"/>
<path fill="#773F1B" opacity="1.000000" stroke="none" 
	d="
M1547.828125,2133.807617 
	C1510.694336,2156.147949 1472.549927,2174.797119 1433.125854,2190.919434 
	C1427.891235,2193.060059 1424.105347,2192.706299 1419.503418,2189.276367 
	C1360.241211,2145.108398 1299.128662,2103.611816 1235.493652,2066.040771 
	C1194.025269,2041.557129 1151.686768,2018.504272 1109.272705,1995.675171 
	C1041.933228,1959.429932 971.959900,1928.824463 900.852600,1900.813477 
	C819.461914,1868.751709 736.300110,1842.107544 651.757019,1819.651489 
	C593.869934,1804.275879 535.426086,1791.400513 476.537872,1780.705444 
	C437.016510,1773.527588 397.184906,1768.020020 357.421692,1762.250732 
	C350.993591,1761.317993 347.557098,1758.953491 344.942780,1753.101807 
	C314.981262,1686.040039 294.751556,1616.097778 282.427734,1543.785034 
	C282.156830,1542.195679 282.393677,1540.519775 282.393677,1537.480347 
	C781.079956,1581.912354 1215.715088,1771.066772 1586.942993,2109.326660 
	C1573.541504,2117.737793 1561.008545,2125.604004 1547.828125,2133.807617 
z"/>
<path fill="#0B7442" opacity="1.000000" stroke="none" 
	d="
M2548.534180,1932.548950 
	C2531.018555,1978.540894 2513.772217,2023.800171 2496.250000,2069.783447 
	C2460.869873,2069.783447 2424.266357,2069.783447 2388.650146,2069.783447 
	C2341.083252,1944.973755 2293.646729,1820.506592 2246.210205,1696.039551 
	C2245.558838,1696.217407 2244.907227,1696.395264 2244.255859,1696.573120 
	C2244.255859,1820.713257 2244.255859,1944.853394 2244.255859,2069.572754 
	C2207.528076,2069.572754 2171.348389,2069.572754 2134.416992,2069.572754 
	C2134.416992,1863.398315 2134.416992,1657.014404 2134.416992,1450.022705 
	C2176.890137,1450.022705 2219.385254,1450.022705 2263.070068,1450.022705 
	C2322.593506,1605.525879 2382.284912,1761.467285 2442.871338,1919.746826 
	C2503.046387,1761.782471 2562.409912,1605.948730 2621.819336,1449.994385 
	C2665.134521,1449.994385 2707.940186,1449.994385 2751.208008,1449.994385 
	C2751.208008,1656.716431 2751.208008,1862.859985 2751.208008,2069.578613 
	C2714.083252,2069.578613 2677.309814,2069.578613 2640.024902,2069.578613 
	C2640.024902,1945.663330 2640.024902,1822.117676 2640.024902,1698.571899 
	C2627.576904,1723.523560 2618.447021,1749.614380 2608.425049,1775.339478 
	C2598.293213,1801.346802 2588.375732,1827.437866 2578.442871,1853.522217 
	C2568.512451,1879.600952 2558.679199,1905.716797 2548.534180,1932.548950 
z"/>
<path fill="#EFBE38" opacity="1.000000" stroke="none" 
	d="
M1413.415405,1127.424316 
	C1402.885742,1136.008667 1392.222168,1144.434814 1381.850342,1153.205933 
	C1344.774536,1184.559326 1307.804321,1216.037476 1270.767212,1247.436768 
	C1268.532837,1249.331055 1266.063965,1250.948486 1263.329224,1252.972290 
	C1246.125854,1236.719727 1227.029053,1224.153809 1205.214111,1213.203857 
	C1228.565552,1151.372070 1253.557007,1090.414917 1275.721802,1028.331787 
	C1263.808960,1046.709595 1255.412964,1066.805298 1245.887329,1086.318237 
	C1236.104614,1106.358154 1226.413696,1126.442871 1216.726440,1146.529175 
	C1207.213257,1166.254761 1197.754883,1186.006836 1188.794922,1204.659790 
	C1164.772583,1200.347290 1142.008911,1196.260864 1118.320923,1192.008423 
	C1117.706421,1184.160034 1116.701416,1175.010864 1116.327393,1165.835938 
	C1115.311890,1140.923706 1114.695068,1115.995117 1113.674927,1091.083130 
	C1112.492920,1062.216309 1111.124023,1033.356323 1109.682739,1004.501160 
	C1109.105225,992.939087 1108.118408,981.397461 1106.544189,969.825195 
	C1106.329346,971.690979 1105.980713,973.552490 1105.920166,975.423279 
	C1105.165405,998.691284 1104.349243,1021.958069 1103.754517,1045.230347 
	C1102.981079,1075.501587 1102.550659,1105.782349 1101.666382,1136.049927 
	C1101.104858,1155.269409 1099.986694,1174.472656 1099.079590,1194.532227 
	C1075.832886,1196.997925 1053.219116,1201.978027 1030.445801,1211.660278 
	C1015.066833,1181.882690 1000.665344,1152.370239 985.925720,1123.035522 
	C971.314941,1093.957153 956.771423,1064.845093 942.390991,1036.132324 
	C940.939453,1036.285522 940.595947,1036.221191 940.427002,1036.363770 
	C940.187683,1036.565796 939.909424,1036.939697 939.940308,1037.206299 
	C940.089233,1038.496826 940.100037,1039.872803 940.581909,1041.045166 
	C964.852478,1100.098877 989.166382,1159.134766 1013.347717,1217.862183 
	C994.598450,1232.446411 976.094543,1246.839844 956.420776,1262.143188 
	C908.272278,1223.506104 859.985657,1182.821411 810.368286,1143.817139 
	C814.013855,1152.363647 852.171814,1188.947998 877.144226,1211.405396 
	C900.625000,1232.521240 922.808594,1255.079712 945.184143,1276.638550 
	C935.395386,1293.704956 925.841492,1310.361816 915.838135,1327.802490 
	C837.227234,1298.844849 756.568420,1274.391602 674.582520,1254.304199 
	C715.563477,1117.778931 857.204651,964.288879 1065.364746,942.434387 
	C1295.160034,918.308411 1473.692017,1059.911133 1538.622925,1208.683594 
	C1452.919556,1226.758423 1368.611938,1249.181030 1285.449219,1276.802246 
	C1282.455078,1273.422241 1279.856323,1270.488525 1276.791260,1267.028564 
	C1279.054565,1264.455200 1280.855225,1262.140991 1282.923950,1260.098145 
	C1299.043579,1244.180054 1315.280273,1228.380493 1331.353394,1212.415771 
	C1351.692139,1192.214233 1371.872192,1171.852905 1392.201538,1151.641846 
	C1399.509155,1144.376831 1407.051392,1137.348022 1415.221680,1129.369141 
	C1416.486694,1128.143188 1416.897827,1127.658691 1417.580444,1126.789062 
	C1418.520752,1126.114014 1418.923096,1125.605957 1419.587524,1124.552490 
	C1419.930664,1123.599365 1419.863647,1123.074341 1419.796509,1122.549194 
	C1419.010864,1122.839355 1418.225098,1123.129639 1416.989746,1123.625610 
	C1415.988159,1124.237305 1415.613403,1124.768311 1414.971191,1125.632202 
	C1413.979858,1126.244507 1413.609497,1126.772583 1413.415405,1127.424316 
M801.998108,1136.174072 
	C801.449890,1136.268799 800.901733,1136.363525 800.353455,1136.458252 
	C800.708130,1137.162231 801.062744,1137.866333 801.831787,1139.466064 
	C802.237549,1140.016113 802.767639,1140.389771 804.272888,1141.638428 
	C805.036804,1141.440063 805.800720,1141.241699 806.564697,1141.043457 
	C806.066223,1140.298584 805.567688,1139.553589 804.492981,1138.027222 
	C804.098450,1137.469116 803.577271,1137.080811 801.998108,1136.174072 
M1276.495361,1022.465332 
	C1276.487671,1023.558838 1276.479858,1024.652344 1276.472046,1025.745850 
	C1277.270630,1024.754883 1278.069214,1023.763977 1279.691772,1021.817200 
	C1279.747192,1020.719238 1279.802612,1019.621216 1279.858032,1018.523254 
	C1279.512573,1018.455444 1279.167114,1018.387634 1278.821655,1018.319763 
	C1278.374878,1019.395691 1277.928101,1020.471619 1276.495361,1022.465332 
M938.479675,1028.684814 
	C938.479675,1028.684814 938.179626,1027.862061 938.058594,1026.437378 
	C935.954956,1022.437805 933.851379,1018.438232 931.747742,1014.438660 
	C930.958069,1014.844482 930.168396,1015.250244 929.378723,1015.656067 
	C931.460632,1019.786682 933.542542,1023.917358 935.882263,1029.108032 
	C936.303101,1029.685547 936.723877,1030.263184 937.509583,1032.140991 
	C938.289795,1032.562134 939.069946,1032.983398 939.850159,1033.404541 
	C939.410217,1032.121948 938.970276,1030.839478 938.479675,1028.684814 
M929.039307,1009.110291 
	C928.816406,1009.599304 928.528076,1010.072876 928.406616,1010.585938 
	C928.365051,1010.761841 928.740845,1011.036621 928.925903,1011.266235 
	C929.152344,1010.774475 929.378784,1010.282776 929.039307,1009.110291 
M1425.355225,1116.384644 
	C1425.193481,1116.841919 1425.031738,1117.299072 1424.869995,1117.756226 
	C1425.318481,1117.855713 1425.766846,1117.955078 1426.215454,1118.054565 
	C1426.321411,1117.433716 1426.427490,1116.812744 1425.355225,1116.384644 
z"/>
<path fill="#783F1B" opacity="1.000000" stroke="none" 
	d="
M2996.550293,1236.507812 
	C3017.787354,1211.725952 3024.105713,1185.476440 3021.131592,1147.058594 
	C3020.219482,1147.287231 3019.077637,1147.218506 3018.566895,1147.752686 
	C2995.481445,1171.920654 2966.071533,1183.527466 2934.095947,1189.213989 
	C2889.996826,1197.056641 2846.539795,1193.800903 2804.746094,1177.270508 
	C2745.260010,1153.742432 2705.583496,1110.904175 2684.185303,1050.774292 
	C2671.825684,1016.042969 2668.350586,980.073792 2670.548584,943.694702 
	C2673.029053,902.647095 2683.966309,863.769409 2707.108154,829.221680 
	C2726.111572,800.851868 2750.582031,778.187134 2781.005615,762.263367 
	C2817.078613,743.382812 2855.548096,735.138733 2896.183594,734.927979 
	C2933.587646,734.734070 2969.600098,740.423462 3003.919922,755.700256 
	C3051.572510,776.911560 3086.114258,811.429199 3107.690918,858.725464 
	C3120.509033,886.823364 3127.902832,916.481812 3128.242676,947.464600 
	C3128.984619,1015.061218 3129.232666,1082.663208 3129.677490,1150.262939 
	C3129.822021,1172.223511 3128.907959,1194.112793 3123.910645,1215.597778 
	C3111.323730,1269.711426 3080.877441,1310.669922 3032.526855,1338.007690 
	C2996.102051,1358.602783 2956.509521,1367.135864 2914.915527,1368.130615 
	C2874.784912,1369.090576 2836.019531,1362.906860 2798.929688,1347.428711 
	C2759.827393,1331.110962 2727.004395,1306.305176 2700.462158,1273.247192 
	C2700.088379,1272.781616 2700.091064,1272.013916 2699.673584,1270.501221 
	C2728.136963,1250.443848 2756.855469,1230.206665 2786.165039,1209.552979 
	C2788.666260,1212.054077 2791.100098,1214.213013 2793.218018,1216.646851 
	C2824.318604,1252.388062 2863.516357,1270.650513 2910.907227,1269.887573 
	C2939.018311,1269.434937 2965.609863,1262.956055 2987.950928,1244.407227 
	C2990.758057,1242.076538 2993.348877,1239.485107 2996.550293,1236.507812 
M2860.056152,838.580811 
	C2824.993164,849.220764 2800.319824,871.373047 2787.582275,905.780273 
	C2773.441895,943.977661 2773.491455,982.740906 2787.228760,1020.936951 
	C2797.950195,1050.746094 2818.118652,1072.400757 2847.901611,1084.650635 
	C2867.104004,1092.548462 2887.053467,1094.857666 2907.544922,1094.033081 
	C2961.231689,1091.872437 3002.178467,1060.951782 3016.064697,1008.816711 
	C3023.562500,980.665283 3024.171875,952.210754 3017.418945,924.069214 
	C3007.324951,882.004272 2982.900635,851.905640 2940.416748,838.955078 
	C2914.367920,831.014526 2887.974854,831.307373 2860.056152,838.580811 
z"/>
<path fill="#0B7542" opacity="1.000000" stroke="none" 
	d="
M4395.081055,2238.979492 
	C4347.126465,2222.760498 4307.822754,2195.543945 4275.818848,2155.449219 
	C4304.962402,2134.889160 4333.875000,2114.491943 4364.729004,2092.725342 
	C4366.337891,2095.142578 4367.767578,2097.853760 4369.710938,2100.125732 
	C4394.668457,2129.304688 4425.686035,2147.986084 4464.093750,2152.742188 
	C4497.238770,2156.845947 4529.195801,2153.149658 4557.748047,2133.957031 
	C4583.640625,2116.552002 4596.007324,2091.347168 4598.211426,2060.839111 
	C4598.918945,2051.048340 4598.321777,2041.163086 4598.321777,2029.594116 
	C4592.548340,2034.819092 4588.390625,2038.949585 4583.860352,2042.619263 
	C4562.629883,2059.816162 4537.897949,2069.256836 4511.260254,2073.320068 
	C4495.240723,2075.763672 4478.868652,2077.570557 4462.717773,2077.167480 
	C4410.762207,2075.870361 4363.132812,2061.151367 4323.047363,2026.841553 
	C4294.704102,2002.581787 4274.626953,1972.436523 4261.884277,1937.250000 
	C4247.887207,1898.600220 4244.996582,1858.651001 4248.561035,1818.301758 
	C4252.625488,1772.278076 4268.178711,1730.344849 4298.466309,1694.636353 
	C4331.233398,1656.004028 4373.282227,1633.745483 4422.530762,1623.953369 
	C4449.862305,1618.519043 4477.490723,1617.714722 4504.975586,1620.377563 
	C4558.145996,1625.529175 4605.607422,1644.473511 4643.799805,1683.099365 
	C4673.127441,1712.760254 4690.941895,1748.672974 4699.970703,1789.164917 
	C4704.323730,1808.685913 4706.245117,1828.494263 4706.283203,1848.442871 
	C4706.414062,1916.088379 4706.462402,1983.734741 4706.283691,2051.379883 
	C4706.179199,2091.099854 4696.883789,2128.264893 4674.793945,2161.856201 
	C4650.436035,2198.896484 4616.575684,2223.621094 4575.153809,2237.770752 
	C4517.793945,2257.364746 4459.770020,2257.391846 4401.622070,2240.738770 
	C4399.704590,2240.189697 4397.750000,2239.773438 4395.081055,2238.979492 
M4502.740723,1719.653931 
	C4484.890625,1716.698364 4467.058594,1716.500000 4449.257812,1720.044067 
	C4410.749023,1727.710938 4382.054199,1748.411621 4366.756348,1784.994873 
	C4349.451172,1826.379517 4349.552734,1868.579834 4366.213379,1910.108276 
	C4378.659668,1941.131714 4401.637695,1961.896606 4433.658203,1972.071411 
	C4459.290527,1980.216431 4485.288574,1980.705811 4511.361328,1974.335815 
	C4553.682617,1963.996094 4579.974609,1936.849121 4592.184082,1895.700928 
	C4600.569824,1867.439331 4600.955566,1838.654541 4594.504883,1809.977173 
	C4583.513672,1761.111816 4554.097656,1730.335083 4502.740723,1719.653931 
z"/>
<path fill="#783F1B" opacity="1.000000" stroke="none" 
	d="
M513.012817,1857.321289 
	C550.792053,1865.862793 587.920532,1873.499512 624.655884,1882.704712 
	C676.181946,1895.616089 727.143555,1910.623657 777.484863,1927.640991 
	C854.654053,1953.726807 930.256836,1983.713257 1004.054199,2018.262573 
	C1095.718750,2061.176758 1183.862793,2110.367188 1268.392944,2166.004639 
	C1294.470093,2183.168701 1320.108276,2201.000000 1348.085083,2219.975586 
	C1255.999756,2246.415527 1164.502441,2255.768066 1071.389648,2251.203125 
	C978.317688,2246.640625 888.542053,2226.875244 802.066467,2192.270020 
	C715.202515,2157.509521 636.275269,2109.538086 565.425964,2048.440186 
	C494.944275,1987.659668 435.786591,1917.397339 387.259277,1834.778687 
	C430.530090,1842.515747 471.358337,1849.816162 513.012817,1857.321289 
z"/>
<path fill="#0B7442" opacity="1.000000" stroke="none" 
	d="
M1640.404175,1468.128662 
	C1601.822144,1475.961670 1564.012695,1483.327759 1526.399902,1491.588867 
	C1472.212402,1503.490356 1418.802490,1518.404907 1365.747803,1534.598511 
	C1358.797485,1536.719971 1351.512817,1540.729248 1344.848389,1539.938965 
	C1338.572754,1539.194702 1332.888306,1533.302246 1326.984741,1529.609497 
	C1275.961426,1497.694092 1224.100708,1467.238647 1170.509155,1439.797974 
	C1156.306152,1432.525757 1142.102661,1425.254395 1127.914551,1417.953125 
	C1125.048340,1416.478149 1122.250732,1414.870117 1117.801758,1412.437866 
	C1380.444092,1296.585205 1654.325562,1238.267578 1938.528809,1225.630249 
	C1950.494995,1251.864258 1963.571167,1384.088623 1958.987671,1432.923340 
	C1852.445435,1437.870239 1746.432861,1449.249390 1640.404175,1468.128662 
z"/>
<path fill="#783F1B" opacity="1.000000" stroke="none" 
	d="
M2542.153564,795.789062 
	C2556.026855,836.463318 2569.763916,876.350952 2583.426514,916.264221 
	C2612.362793,1000.797729 2641.255371,1085.346191 2670.186035,1169.881592 
	C2671.894531,1174.873779 2673.784424,1179.803711 2675.862549,1185.511597 
	C2636.507080,1185.511597 2598.022705,1185.511597 2558.391357,1185.511597 
	C2541.437744,1131.520142 2524.367188,1077.156738 2507.191895,1022.459717 
	C2438.816895,1022.459717 2370.581055,1022.459717 2301.491699,1022.459717 
	C2284.414795,1076.840942 2267.324951,1131.263306 2250.213867,1185.753906 
	C2211.278076,1185.753906 2173.016602,1185.753906 2134.973877,1185.753906 
	C2134.555664,1185.289062 2134.303711,1185.095215 2134.171875,1184.839355 
	C2134.022461,1184.549438 2133.844482,1184.171265 2133.913330,1183.888062 
	C2134.458496,1181.640625 2134.914307,1179.357178 2135.662842,1177.175659 
	C2205.604736,973.312256 2275.570801,769.456970 2345.576416,565.480469 
	C2384.912354,565.480469 2423.485596,565.480469 2463.109131,565.480469 
	C2489.359375,641.871216 2515.671631,718.442627 2542.153564,795.789062 
M2340.360352,897.407715 
	C2338.355469,904.330078 2336.350830,911.252441 2334.322510,918.255798 
	C2348.392334,920.167419 2466.079346,919.558716 2473.009033,917.639465 
	C2463.481934,880.208496 2407.465088,705.442017 2402.966797,699.471863 
	C2382.286865,765.089355 2361.664795,830.523682 2340.360352,897.407715 
z"/>
<path fill="#0B7442" opacity="1.000000" stroke="none" 
	d="
M4983.714844,1620.145020 
	C5037.730469,1622.368652 5086.214355,1637.740112 5126.967285,1672.570312 
	C5161.937988,1702.458252 5183.295898,1740.997559 5193.817383,1785.714233 
	C5200.981934,1816.162842 5201.088867,1846.989014 5199.624512,1877.944580 
	C5199.578125,1878.926758 5199.373047,1879.932983 5199.050781,1880.861694 
	C5198.732422,1881.778931 5198.170410,1882.611572 5197.440430,1884.005371 
	C5083.036133,1884.005371 4968.434082,1884.005371 4852.937012,1884.005371 
	C4856.859375,1907.155640 4865.956543,1926.958374 4881.443848,1943.667725 
	C4904.038086,1968.044312 4932.814941,1978.246826 4965.313477,1979.379761 
	C4988.230957,1980.178589 5010.295898,1976.629272 5030.991211,1966.050415 
	C5044.874512,1958.953369 5056.593750,1949.381226 5066.105469,1937.088379 
	C5068.848633,1933.542603 5071.663574,1931.253418 5076.736328,1931.288574 
	C5111.731934,1931.531860 5146.730469,1931.409058 5181.728027,1931.443115 
	C5183.311523,1931.444702 5184.895020,1931.822754 5187.165527,1932.113403 
	C5182.053711,1949.696899 5174.437500,1965.536133 5164.958984,1980.400391 
	C5134.884766,2027.566406 5092.021973,2056.884033 5037.936523,2070.079346 
	C4985.269531,2082.928711 4932.867676,2081.598877 4881.900879,2063.075928 
	C4809.180176,2036.646851 4765.333008,1983.812500 4748.125488,1909.027466 
	C4737.514648,1862.910400 4738.419922,1816.534790 4752.379395,1771.128662 
	C4772.631348,1705.255737 4815.029297,1659.640259 4879.883301,1635.343506 
	C4913.099121,1622.899658 4947.543945,1618.995850 4983.714844,1620.145020 
M4908.214355,1733.047729 
	C4887.233398,1745.050903 4871.286621,1761.507202 4861.425781,1784.784058 
	C4934.961914,1784.784058 5007.206543,1784.784058 5080.211914,1784.784058 
	C5077.257324,1775.282227 5072.149902,1767.973267 5066.670410,1761.025024 
	C5043.322754,1731.418579 5011.272949,1719.854492 4974.969727,1718.264526 
	C4952.085938,1717.262085 4930.098633,1721.958008 4908.214355,1733.047729 
z"/>
<path fill="#0B7542" opacity="1.000000" stroke="none" 
	d="
M2843.553223,1693.561035 
	C2868.548096,1664.649170 2898.854004,1644.767700 2934.386230,1633.299683 
	C2993.168701,1614.327393 3052.347900,1614.052734 3110.362549,1635.318604 
	C3180.159180,1660.903442 3223.256592,1711.553345 3241.739258,1783.295532 
	C3247.222656,1804.579346 3249.690674,1826.298340 3249.683105,1848.295776 
	C3249.659668,1918.273804 3249.674072,1988.251709 3249.674072,2058.229736 
	C3249.674072,2061.826172 3249.674316,2065.422852 3249.674316,2069.577148 
	C3213.734131,2069.577148 3178.599365,2069.577148 3142.318604,2069.577148 
	C3142.318604,2056.708252 3142.318604,2043.995361 3142.318604,2029.695068 
	C3110.125488,2063.020020 3070.890869,2074.595703 3028.064453,2077.478760 
	C2986.802490,2080.256348 2947.088623,2073.940430 2909.832275,2055.806152 
	C2852.534668,2027.917236 2817.211426,1981.644409 2799.995850,1920.966431 
	C2795.279297,1904.342651 2792.961426,1887.293945 2791.474854,1870.007202 
	C2788.177979,1831.663452 2792.845215,1794.547974 2805.730957,1758.357178 
	C2814.190186,1734.599365 2826.600830,1713.175049 2843.553223,1693.561035 
M2995.903564,1720.182617 
	C2993.307129,1720.753052 2990.703125,1721.289917 2988.115723,1721.899048 
	C2948.515137,1731.219116 2920.918213,1754.577148 2907.294189,1793.022095 
	C2893.968750,1830.625244 2894.150146,1868.626831 2907.813232,1906.200317 
	C2919.538818,1938.445312 2941.740234,1960.472778 2974.214844,1971.982544 
	C2997.657959,1980.291504 3021.720947,1981.704834 3045.970703,1977.340576 
	C3087.079102,1969.942139 3116.655273,1947.123413 3131.790771,1908.010498 
	C3146.470459,1870.074829 3146.437744,1831.079468 3132.996338,1792.839233 
	C3121.453369,1759.999756 3098.836670,1736.956543 3065.420166,1725.570679 
	C3043.349854,1718.050659 3020.708496,1716.215454 2995.903564,1720.182617 
z"/>
<path fill="#0B7542" opacity="1.000000" stroke="none" 
	d="
M3892.346191,2065.794434 
	C3849.973145,2050.733887 3815.818604,2025.859863 3790.463379,1989.519531 
	C3768.943115,1958.675415 3756.279785,1924.265137 3751.797852,1887.013550 
	C3747.399658,1850.460449 3748.039307,1814.017456 3758.021729,1778.281128 
	C3777.846924,1707.308594 3821.987793,1658.724976 3891.697021,1633.724121 
	C3925.782959,1621.499268 3961.091553,1618.270386 3996.782227,1620.354858 
	C4044.174072,1623.122681 4088.055176,1636.929565 4126.101074,1666.467163 
	C4156.855469,1690.344604 4178.449219,1720.926514 4192.271484,1757.161377 
	C4202.914062,1785.060425 4208.061523,1814.095215 4208.210449,1843.809204 
	C4208.579590,1917.435181 4208.330566,1991.064331 4208.319824,2064.692139 
	C4208.319336,2066.019287 4208.196777,2067.346680 4208.094238,2069.412109 
	C4172.608398,2069.412109 4137.148438,2069.412109 4100.462891,2069.412109 
	C4100.462891,2057.331055 4100.462891,2044.942383 4100.462891,2031.508179 
	C4098.298340,2032.739380 4097.376465,2033.023438 4096.791504,2033.631714 
	C4074.652588,2056.651367 4046.560059,2067.925781 4016.019531,2073.810547 
	C3974.449707,2081.820312 3933.419189,2078.996338 3892.346191,2065.794434 
M3948.863525,1721.487305 
	C3911.532471,1729.342529 3884.261963,1750.121094 3869.058105,1785.301880 
	C3853.307373,1821.748291 3852.503662,1859.312378 3863.426514,1897.203979 
	C3874.103516,1934.242188 3897.523682,1959.670044 3934.018799,1972.470825 
	C3955.732910,1980.087158 3978.261475,1981.495850 4000.841064,1977.986450 
	C4041.437256,1971.676758 4071.971436,1950.979126 4088.419922,1912.510986 
	C4104.039062,1875.982178 4104.567871,1838.201538 4093.926270,1800.365479 
	C4084.937256,1768.404053 4065.827637,1744.155518 4035.157959,1730.161621 
	C4008.036133,1717.786621 3979.685059,1715.333252 3948.863525,1721.487305 
z"/>
<path fill="#783F1B" opacity="1.000000" stroke="none" 
	d="
M3838.275879,853.642822 
	C3851.098389,880.710205 3858.003906,908.464783 3860.505127,937.586548 
	C3863.758057,975.460510 3861.045410,1012.602600 3848.662598,1048.637695 
	C3824.088867,1120.150146 3774.778564,1165.884033 3701.941162,1185.099487 
	C3647.597900,1199.435913 3593.218994,1197.589355 3540.290283,1177.732422 
	C3482.329346,1155.987549 3442.067139,1115.729492 3419.406982,1058.101196 
	C3409.614746,1033.197754 3405.179199,1007.245850 3403.423096,980.505371 
	C3401.152344,945.928833 3404.967285,912.314880 3415.979492,879.638733 
	C3434.019043,826.109863 3468.170898,785.928162 3518.734863,760.576660 
	C3550.915527,744.442139 3585.430908,736.739746 3621.515625,735.983887 
	C3650.926514,735.367920 3679.943359,737.366211 3708.337158,745.791443 
	C3766.792480,763.136658 3810.640381,798.024109 3838.275879,853.642822 
M3602.522461,837.096558 
	C3565.123047,844.939087 3537.827393,865.745117 3522.611328,900.996948 
	C3507.594238,935.786194 3506.427734,971.858948 3515.719482,1008.268433 
	C3526.558105,1050.738281 3552.776123,1078.825439 3595.361572,1090.671631 
	C3613.831055,1095.809204 3632.755615,1096.676514 3651.712158,1093.978149 
	C3694.469482,1087.891846 3726.394287,1066.588989 3742.955566,1025.850464 
	C3758.728516,987.050598 3758.873291,947.288330 3744.797852,908.051880 
	C3731.201904,870.152954 3703.873779,846.849365 3664.533203,837.717834 
	C3644.464600,833.059570 3624.357422,833.005920 3602.522461,837.096558 
z"/>
<path fill="#0B7542" opacity="1.000000" stroke="none" 
	d="
M3596.905029,1634.985596 
	C3639.533203,1653.564819 3670.683594,1683.261597 3690.871094,1724.186157 
	C3703.679688,1750.151733 3710.391602,1777.717896 3710.362793,1806.849854 
	C3710.279541,1890.487305 3710.333496,1974.124756 3710.333496,2057.762207 
	C3710.333496,2061.414551 3710.333496,2065.066650 3710.333496,2069.435547 
	C3674.554932,2069.435547 3639.093750,2069.435547 3602.326416,2069.435547 
	C3602.326416,2066.066650 3602.326172,2062.529785 3602.326172,2058.992920 
	C3602.326172,1975.022217 3601.814209,1891.046997 3602.546143,1807.082764 
	C3602.901611,1766.292358 3579.330566,1730.779663 3534.718750,1720.824463 
	C3506.229492,1714.467041 3478.510742,1716.270874 3452.469727,1730.304077 
	C3424.111328,1745.585938 3410.300293,1770.353882 3409.849121,1801.949463 
	C3409.173584,1849.256714 3409.673828,1896.580688 3409.673828,1943.897583 
	C3409.673584,1982.217529 3409.673828,2020.537476 3409.673828,2058.857422 
	C3409.673828,2062.144287 3409.673584,2065.431152 3409.673584,2069.434326 
	C3373.689453,2069.434326 3338.264160,2069.434326 3302.114258,2069.434326 
	C3301.968994,2066.988037 3301.686523,2064.442383 3301.685791,2061.896484 
	C3301.662842,1975.926392 3301.108154,1889.951416 3301.882324,1803.988281 
	C3302.325684,1754.754761 3320.625732,1711.996094 3354.848145,1676.450928 
	C3389.210938,1640.760254 3432.152100,1623.804932 3480.848877,1619.325928 
	C3510.923340,1616.559814 3540.557129,1618.391235 3569.762695,1625.943481 
	C3578.733154,1628.263306 3587.417480,1631.690674 3596.905029,1634.985596 
z"/>
<path fill="#0B7442" opacity="1.000000" stroke="none" 
	d="
M1422.942871,1588.229492 
	C1596.853394,1538.840210 1773.492188,1511.131958 1954.537598,1502.708252 
	C1946.400146,1577.835938 1928.370239,1650.195190 1900.308838,1720.923218 
	C1892.830933,1721.755249 1885.356323,1722.786743 1877.847412,1723.390503 
	C1822.931885,1727.805420 1768.300293,1734.536987 1713.945801,1743.489746 
	C1688.728516,1747.643311 1663.522217,1751.892456 1638.405396,1756.602783 
	C1633.541382,1757.515015 1630.031006,1756.844971 1626.555420,1753.762695 
	C1561.308594,1695.899902 1492.754272,1642.234985 1421.403931,1592.117065 
	C1420.899292,1591.762695 1420.613892,1591.096191 1420.126099,1590.441162 
	C1420.820923,1589.778442 1421.518311,1589.113403 1422.942871,1588.229492 
z"/>
<path fill="#783F1B" opacity="1.000000" stroke="none" 
	d="
M3284.333252,1173.856079 
	C3284.333252,1178.139160 3284.333252,1181.441284 3284.333252,1185.395264 
	C3248.441162,1185.395264 3212.984863,1185.395264 3176.905762,1185.395264 
	C3176.712158,1182.860352 3176.347412,1180.304199 3176.346436,1177.747681 
	C3176.316162,1097.119751 3175.888184,1016.488281 3176.536377,935.865479 
	C3176.793457,903.922302 3181.330322,872.430420 3194.547607,842.707275 
	C3212.387939,802.587708 3241.534912,773.941406 3281.264404,755.829956 
	C3308.191895,743.554688 3336.678711,737.391113 3366.057373,735.138123 
	C3376.228027,734.358215 3386.446045,734.192932 3397.164551,733.724060 
	C3397.164551,767.097534 3397.164551,799.227356 3397.164551,830.644470 
	C3382.202393,833.128296 3367.571533,834.417175 3353.569336,838.099060 
	C3314.369141,848.407043 3290.641602,876.210266 3285.777588,916.166870 
	C3284.857910,923.720398 3284.403076,931.377502 3284.393555,938.987610 
	C3284.295410,1016.950073 3284.333252,1094.912720 3284.333252,1173.856079 
z"/>
<path fill="#0C7542" opacity="1.000000" stroke="none" 
	d="
M5436.635742,1718.128418 
	C5420.534180,1720.430054 5405.938477,1724.430054 5392.443848,1732.176392 
	C5367.857422,1746.289551 5354.789551,1768.167236 5349.951172,1795.324097 
	C5348.272949,1804.742188 5347.791992,1814.478027 5347.771484,1824.070801 
	C5347.604980,1902.036621 5347.677734,1980.002808 5347.677734,2057.968994 
	C5347.677734,2061.580811 5347.677734,2065.192871 5347.677734,2069.478516 
	C5311.914551,2069.478516 5276.780273,2069.478516 5241.041016,2069.478516 
	C5240.815430,2067.452637 5240.354980,2065.236816 5240.354004,2063.020996 
	C5240.316895,1978.057861 5239.417969,1893.081421 5240.684082,1808.137085 
	C5241.372559,1761.993042 5254.257812,1719.004639 5285.533691,1683.202393 
	C5305.511719,1660.333252 5330.455078,1644.833984 5358.613770,1634.411255 
	C5382.415527,1625.601440 5407.098145,1620.512451 5432.535156,1619.373657 
	C5441.772949,1618.960205 5450.998047,1618.269897 5460.979492,1617.660034 
	C5460.979492,1650.809448 5460.979492,1682.929443 5460.979492,1715.674561 
	C5453.183594,1716.481201 5445.355957,1717.291138 5436.635742,1718.128418 
z"/>
<path fill="#0D7543" opacity="1.000000" stroke="none" 
	d="
M1705.196533,1814.168457 
	C1756.231445,1807.486572 1806.474243,1800.830688 1856.728394,1794.260986 
	C1859.604370,1793.885010 1862.572266,1794.212280 1865.632568,1794.212280 
	C1861.389893,1810.737183 1808.815918,1895.319458 1793.239258,1911.366821 
	C1761.770142,1879.532227 1730.293457,1847.690186 1698.828857,1815.860229 
	C1699.705566,1815.601440 1702.056274,1814.907471 1705.196533,1814.168457 
z"/>
<path fill="#F9E7B6" opacity="1.000000" stroke="none" 
	d="
M935.624451,1028.047974 
	C933.542542,1023.917358 931.460632,1019.786682 929.378723,1015.656067 
	C930.168396,1015.250244 930.958069,1014.844482 931.747742,1014.438660 
	C933.851379,1018.438232 935.954956,1022.437805 937.478027,1027.167480 
	C936.473083,1027.947510 936.048767,1027.997681 935.624451,1028.047974 
z"/>
<path fill="#F9E7B6" opacity="1.000000" stroke="none" 
	d="
M929.322266,1009.450684 
	C929.378784,1010.282776 929.152344,1010.774475 928.925903,1011.266235 
	C928.740845,1011.036621 928.365051,1010.761841 928.406616,1010.585938 
	C928.528076,1010.072876 928.816406,1009.599304 929.322266,1009.450684 
z"/>
<path fill="#FFFFFF" opacity="1.000000" stroke="none" 
	d="
M1425.944336,1116.288330 
	C1426.427490,1116.812744 1426.321411,1117.433716 1426.215332,1118.054443 
	C1425.766846,1117.955078 1425.318481,1117.855713 1424.869995,1117.756348 
	C1425.031738,1117.299072 1425.193481,1116.841919 1425.944336,1116.288330 
z"/>
<path fill="#FFFFFF" opacity="1.000000" stroke="none" 
	d="
M938.530273,1029.556885 
	C938.970276,1030.839478 939.410217,1032.121948 939.850159,1033.404541 
	C939.069946,1032.983398 938.289795,1032.562134 937.673584,1031.164307 
	C937.837524,1030.187500 938.530273,1029.556885 938.530273,1029.556885 
z"/>
<path fill="#FFFFFF" opacity="1.000000" stroke="none" 
	d="
M1278.867798,1022.773010 
	C1278.069214,1023.763977 1277.270630,1024.754883 1276.472046,1025.745850 
	C1276.479858,1024.652344 1276.487671,1023.558838 1277.333984,1022.313843 
	C1278.172729,1022.162415 1278.867798,1022.773010 1278.867798,1022.773010 
z"/>
<path fill="#FFFFFF" opacity="1.000000" stroke="none" 
	d="
M1277.827148,1021.854980 
	C1277.928101,1020.471619 1278.374878,1019.395691 1278.821655,1018.319763 
	C1279.167114,1018.387634 1279.512573,1018.455444 1279.858032,1018.523254 
	C1279.802612,1019.621216 1279.747192,1020.719238 1279.279785,1022.295105 
	C1278.867798,1022.773010 1278.172729,1022.162415 1277.827148,1021.854980 
z"/>
<path fill="#FFFFFF" opacity="1.000000" stroke="none" 
	d="
M805.069214,1138.808716 
	C805.567688,1139.553589 806.066223,1140.298584 806.564697,1141.043457 
	C805.800720,1141.241699 805.036804,1141.440063 804.273315,1140.681030 
	C804.538879,1139.418579 804.804016,1139.113647 805.069214,1138.808716 
z"/>
<path fill="#FFFFFF" opacity="1.000000" stroke="none" 
	d="
M803.847900,1140.155273 
	C802.767639,1140.389771 802.237549,1140.016113 802.021606,1138.607910 
	C802.450745,1137.453979 802.690125,1137.158081 802.929504,1136.862183 
	C803.577271,1137.080811 804.098450,1137.469116 804.781128,1138.417969 
	C804.804016,1139.113647 804.538879,1139.418579 803.847900,1140.155273 
z"/>
<path fill="#FFFFFF" opacity="1.000000" stroke="none" 
	d="
M801.814331,1138.160156 
	C801.062744,1137.866333 800.708130,1137.162231 800.353516,1136.458252 
	C800.901733,1136.363525 801.449890,1136.268799 802.463806,1136.518066 
	C802.690125,1137.158081 802.450745,1137.453979 801.814331,1138.160156 
z"/>
<path fill="#FFFFFF" opacity="1.000000" stroke="none" 
	d="
M1417.190308,1127.073364 
	C1416.897827,1127.658691 1416.486694,1128.143188 1415.573364,1128.802002 
	C1414.886230,1128.810913 1414.582520,1128.544800 1413.847168,1127.851562 
	C1413.609497,1126.772583 1413.979858,1126.244507 1415.402832,1126.058838 
	C1416.582764,1126.542725 1416.886475,1126.808105 1417.190308,1127.073364 
z"/>
<path fill="#FFFFFF" opacity="1.000000" stroke="none" 
	d="
M1419.177368,1124.980591 
	C1418.923096,1125.605957 1418.520752,1126.114014 1417.580444,1126.789062 
	C1416.886475,1126.808105 1416.582764,1126.542725 1415.847412,1125.850830 
	C1415.613403,1124.768311 1415.988159,1124.237305 1417.406982,1124.035034 
	C1418.574951,1124.485962 1418.876221,1124.733276 1419.177368,1124.980591 
z"/>
<path fill="#FFFFFF" opacity="1.000000" stroke="none" 
	d="
M1417.856689,1123.829224 
	C1418.225098,1123.129639 1419.010864,1122.839355 1419.796509,1122.549194 
	C1419.863647,1123.074341 1419.930664,1123.599365 1419.587524,1124.552490 
	C1418.876221,1124.733276 1418.574951,1124.485962 1417.856689,1123.829224 
z"/>
<path fill="#FFFFFF" opacity="1.000000" stroke="none" 
	d="
M935.753357,1028.578003 
	C936.048767,1027.997681 936.473083,1027.947510 937.538513,1027.879761 
	C938.179626,1027.862061 938.479675,1028.684814 938.505005,1029.120850 
	C938.530273,1029.556885 937.837524,1030.187500 937.491089,1030.514160 
	C936.723877,1030.263184 936.303101,1029.685547 935.753357,1028.578003 
z"/>
<path fill="#FEFEFE" opacity="1.000000" stroke="none" 
	d="
M2860.848877,838.356689 
	C2887.974854,831.307373 2914.367920,831.014526 2940.416748,838.955078 
	C2982.900635,851.905640 3007.324951,882.004272 3017.418945,924.069214 
	C3024.171875,952.210754 3023.562500,980.665283 3016.064697,1008.816711 
	C3002.178467,1060.951782 2961.231689,1091.872437 2907.544922,1094.033081 
	C2887.053467,1094.857666 2867.104004,1092.548462 2847.901611,1084.650635 
	C2818.118652,1072.400757 2797.950195,1050.746094 2787.228760,1020.936951 
	C2773.491455,982.740906 2773.441895,943.977661 2787.582275,905.780273 
	C2800.319824,871.373047 2824.993164,849.220764 2860.848877,838.356689 
z"/>
<path fill="#FEFEFE" opacity="1.000000" stroke="none" 
	d="
M4503.588867,1719.828857 
	C4554.097656,1730.335083 4583.513672,1761.111816 4594.504883,1809.977173 
	C4600.955566,1838.654541 4600.569824,1867.439331 4592.184082,1895.700928 
	C4579.974609,1936.849121 4553.682617,1963.996094 4511.361328,1974.335815 
	C4485.288574,1980.705811 4459.290527,1980.216431 4433.658203,1972.071411 
	C4401.637695,1961.896606 4378.659668,1941.131714 4366.213379,1910.108276 
	C4349.552734,1868.579834 4349.451172,1826.379517 4366.756348,1784.994873 
	C4382.054199,1748.411621 4410.749023,1727.710938 4449.257812,1720.044067 
	C4467.058594,1716.500000 4484.890625,1716.698364 4503.588867,1719.828857 
z"/>
<path fill="#FDFCFC" opacity="1.000000" stroke="none" 
	d="
M2340.701660,896.682861 
	C2361.664795,830.523682 2382.286865,765.089355 2402.966797,699.471863 
	C2407.465088,705.442017 2463.481934,880.208496 2473.009033,917.639465 
	C2466.079346,919.558716 2348.392334,920.167419 2334.322510,918.255798 
	C2336.350830,911.252441 2338.355469,904.330078 2340.701660,896.682861 
z"/>
<path fill="#FBFCFB" opacity="1.000000" stroke="none" 
	d="
M4908.835938,1732.635986 
	C4930.098633,1721.958008 4952.085938,1717.262085 4974.969727,1718.264526 
	C5011.272949,1719.854492 5043.322754,1731.418579 5066.670410,1761.025024 
	C5072.149902,1767.973267 5077.257324,1775.282227 5080.211914,1784.784058 
	C5007.206543,1784.784058 4934.961914,1784.784058 4861.425781,1784.784058 
	C4871.286621,1761.507202 4887.233398,1745.050903 4908.835938,1732.635986 
z"/>
<path fill="#FEFEFE" opacity="1.000000" stroke="none" 
	d="
M2996.782227,1720.135498 
	C3020.708496,1716.215454 3043.349854,1718.050659 3065.420166,1725.570679 
	C3098.836670,1736.956543 3121.453369,1759.999756 3132.996338,1792.839233 
	C3146.437744,1831.079468 3146.470459,1870.074829 3131.790771,1908.010498 
	C3116.655273,1947.123413 3087.079102,1969.942139 3045.970703,1977.340576 
	C3021.720947,1981.704834 2997.657959,1980.291504 2974.214844,1971.982544 
	C2941.740234,1960.472778 2919.538818,1938.445312 2907.813232,1906.200317 
	C2894.150146,1868.626831 2893.968750,1830.625244 2907.294189,1793.022095 
	C2920.918213,1754.577148 2948.515137,1731.219116 2988.115723,1721.899048 
	C2990.703125,1721.289917 2993.307129,1720.753052 2996.782227,1720.135498 
z"/>
<path fill="#FEFEFE" opacity="1.000000" stroke="none" 
	d="
M3949.699707,1721.287109 
	C3979.685059,1715.333252 4008.036133,1717.786621 4035.157959,1730.161621 
	C4065.827637,1744.155518 4084.937256,1768.404053 4093.926270,1800.365479 
	C4104.567871,1838.201538 4104.039062,1875.982178 4088.419922,1912.510986 
	C4071.971436,1950.979126 4041.437256,1971.676758 4000.841064,1977.986450 
	C3978.261475,1981.495850 3955.732910,1980.087158 3934.018799,1972.470825 
	C3897.523682,1959.670044 3874.103516,1934.242188 3863.426514,1897.203979 
	C3852.503662,1859.312378 3853.307373,1821.748291 3869.058105,1785.301880 
	C3884.261963,1750.121094 3911.532471,1729.342529 3949.699707,1721.287109 
z"/>
<path fill="#FEFEFE" opacity="1.000000" stroke="none" 
	d="
M3603.338867,836.819946 
	C3624.357422,833.005920 3644.464600,833.059570 3664.533203,837.717834 
	C3703.873779,846.849365 3731.201904,870.152954 3744.797852,908.051880 
	C3758.873291,947.288330 3758.728516,987.050598 3742.955566,1025.850464 
	C3726.394287,1066.588989 3694.469482,1087.891846 3651.712158,1093.978149 
	C3632.755615,1096.676514 3613.831055,1095.809204 3595.361572,1090.671631 
	C3552.776123,1078.825439 3526.558105,1050.738281 3515.719482,1008.268433 
	C3506.427734,971.858948 3507.594238,935.786194 3522.611328,900.996948 
	C3537.827393,865.745117 3565.123047,844.939087 3603.338867,836.819946 
z"/>
</svg>