<svg xmlns="http://www.w3.org/2000/svg" fill="none" viewBox="0 0 24 24">
    <path fill="currentColor" fill-opacity=".3"
        d="M21 7H3c-.55 0-1 .45-1 1v11c0 .55.45 1 1 1h18c.55 0 1-.45 1-1V8c0-.55-.45-1-1-1Z"/>
    <path fill="currentColor"
        d="M21 4H3c-.55 0-1 .45-1 1v2h20V5c0-.55-.45-1-1-1Z"/>
    <circle fill="currentColor" cx="8" cy="13" r="2"/>
    <path fill="currentColor"
        d="M5 17.5c0-1.38 1.12-2.5 3-2.5s3 1.12 3 2.5"/>
    <path fill="currentColor"
        d="M14 12h5v1h-5v-1Z"/>
    <path fill="currentColor"
        d="M14 14.5h4v1h-4v-1Z"/>
</svg>